<?xml version="1.0" encoding="UTF-8"?>
<svg version="1.1" xmlns="http://www.w3.org/2000/svg" width="632" height="395">
<path d="M0 0 C0.94875 0.67675781 1.8975 1.35351562 2.875 2.05078125 C9.52865877 6.92839829 15.86283297 12.13713425 22.10546875 17.5234375 C23.70668348 18.89343769 25.32187272 20.24915098 26.98828125 21.5390625 C33.45480444 26.57029534 38.10567463 33.50804511 43 40 C44.12535156 41.46953125 44.12535156 41.46953125 45.2734375 42.96875 C49.8202548 49.03117306 53.54646751 55.26278088 57 62 C57.73863281 63.34964844 57.73863281 63.34964844 58.4921875 64.7265625 C69.51087441 85.45082856 74.69806565 109.65815239 75 133 C75.02707031 134.03769531 75.05414063 135.07539063 75.08203125 136.14453125 C75.1265289 139.10160259 75.07363485 142.04356061 75 145 C74.99484375 146.27230469 74.9896875 147.54460937 74.984375 148.85546875 C74.52514446 174.2242999 65.73395223 198.7923052 54 221 C53.67 221.66 53.34 222.32 53 223 C52.34 223 51.68 223 51 223 C50.92007812 223.70511719 50.84015625 224.41023437 50.7578125 225.13671875 C49.80564671 228.73433487 48.14810706 230.87287171 45.875 233.8125 C45.46975098 234.33875977 45.06450195 234.86501953 44.64697266 235.40722656 C41.78164862 239.09459752 38.80380403 242.66317156 35.6796875 246.1328125 C34.51936815 247.42265587 33.37983999 248.73139947 32.2578125 250.0546875 C28.55086168 254.4206518 24.72713369 258.70722086 20 262 C19.34 262 18.68 262 18 262 C18 262.66 18 263.32 18 264 C16.27852222 265.37659768 14.49622345 266.67772763 12.6875 267.9375 C8.89075106 270.53448221 8.89075106 270.53448221 5.45703125 273.56640625 C3.50186357 275.49012351 1.38874861 276.6429805 -1 278 C-1.61472168 278.35529785 -2.22944336 278.7105957 -2.86279297 279.07666016 C-42.12988472 301.69620865 -87.3270625 310.04835393 -131.63183594 298.30224609 C-141.0710193 295.66965679 -150.29975289 292.54785645 -159 288 C-159.97936523 287.48977295 -159.97936523 287.48977295 -160.97851562 286.96923828 C-171.58250685 281.39576916 -181.48952216 275.28237576 -191 268 C-191.95261719 267.27167969 -192.90523437 266.54335938 -193.88671875 265.79296875 C-199.01046974 261.73636133 -203.79069271 257.39967823 -208.4375 252.8125 C-208.9339502 252.32539551 -209.43040039 251.83829102 -209.94189453 251.33642578 C-213.11240063 248.13775666 -215.58556585 244.79117533 -218 241 C-218.96621725 239.67793804 -219.94402346 238.36420195 -220.9375 237.0625 C-221.45183594 236.37929688 -221.96617187 235.69609375 -222.49609375 234.9921875 C-223.4221424 233.7654737 -224.35118464 232.54100488 -225.28515625 231.3203125 C-229.10326874 226.18857289 -232.03611006 220.65643784 -235 215 C-235.63164062 213.85917969 -236.26328125 212.71835937 -236.9140625 211.54296875 C-245.93822767 194.85056695 -251.4213436 175.76244996 -253.125 156.875 C-253.2084668 155.95267578 -253.29193359 155.03035156 -253.37792969 154.08007812 C-256.07452468 122.44736788 -251.317316 89.61705733 -235 62 C-234.1646875 60.52080078 -234.1646875 60.52080078 -233.3125 59.01171875 C-229.55137581 52.40456533 -225.48353318 46.13755122 -221 40 C-220.49597656 39.30132812 -219.99195313 38.60265625 -219.47265625 37.8828125 C-215.90426849 33.01768967 -212.07945901 28.44415077 -208 24 C-207.39027344 23.32453125 -206.78054687 22.6490625 -206.15234375 21.953125 C-201.29655246 16.82600819 -195.96260115 12.47950394 -190.375 8.1875 C-189.65844238 7.63618408 -188.94188477 7.08486816 -188.20361328 6.5168457 C-183.95198836 3.30680516 -179.66624711 0.56671735 -175 -2 C-173.60280191 -2.89370328 -172.20686763 -3.789387 -170.8125 -4.6875 C-120.3338509 -35.02100015 -48.50879261 -34.68082887 0 0 Z M-165.9921875 17.88671875 C-168 19 -168 19 -170.0078125 19.89453125 C-172.45948075 21.25496677 -174.04899673 22.99020944 -176 25 C-177.7153393 26.41279126 -179.44561774 27.8075673 -181.1875 29.1875 C-186.4332039 33.44610908 -191.59482673 37.8551927 -196 43 C-196 43.66 -196 44.32 -196 45 C-196.66 45 -197.32 45 -198 45 C-200.91454102 48.47555596 -203.41298403 52.27688707 -206 56 C-206.67933594 56.94875 -207.35867187 57.8975 -208.05859375 58.875 C-215.61299426 69.71328221 -220.81863002 81.49132541 -225 94 C-225.23050049 94.64420898 -225.46100098 95.28841797 -225.69848633 95.95214844 C-238.61120763 132.84563786 -232.04512734 171.63757864 -215.51513672 206.01025391 C-212.56094295 212.17983063 -212.56094295 212.17983063 -209 218 C-208.34 218 -207.68 218 -207 218 C-206.74992187 218.72058594 -206.49984375 219.44117188 -206.2421875 220.18359375 C-202.75547857 228.08899355 -195.58886425 234.5927993 -189.5625 240.6875 C-188.78253662 241.48136108 -188.78253662 241.48136108 -187.98681641 242.29125977 C-185.46656073 245.12958382 -185.46656073 245.12958382 -182 246 C-182 246.66 -182 247.32 -182 248 C-174.82250476 254.4756957 -166.49410423 259.47155614 -158 264 C-157.09121094 264.48726563 -156.18242187 264.97453125 -155.24609375 265.4765625 C-147.71515586 269.3874357 -140.04673224 272.3297436 -132 275 C-130.93910156 275.37253906 -129.87820313 275.74507813 -128.78515625 276.12890625 C-96.79646752 286.84452386 -59.08168974 282.49776884 -29 268 C-27.59847078 267.35889343 -26.19602685 266.71978493 -24.79296875 266.08203125 C-23.23674235 265.36770319 -21.68075548 264.6528531 -20.125 263.9375 C-19.37404053 263.5967041 -18.62308105 263.2559082 -17.84936523 262.90478516 C-16.78310913 262.40857666 -16.78310913 262.40857666 -15.6953125 261.90234375 C-15.05609863 261.60835693 -14.41688477 261.31437012 -13.75830078 261.01147461 C-11.82909445 259.90168541 -10.53596299 258.59864992 -9 257 C-7.33333333 256 -5.66666667 255 -4 254 C-2.54981438 252.99726942 -1.11294348 251.97510197 0.3125 250.9375 C1.00988281 250.43089844 1.70726562 249.92429687 2.42578125 249.40234375 C2.94527344 248.93957031 3.46476563 248.47679687 4 248 C4 247.34 4 246.68 4 246 C4.66 246 5.32 246 6 246 C7.56864082 244.4492093 7.56864082 244.4492093 9.1875 242.4375 C11.49886136 239.70589111 13.83747347 237.1444058 16.4375 234.6875 C20.9007447 230.30540521 24.63793797 225.26577507 28 220 C28 219.34 28 218.68 28 218 C28.66 218 29.32 218 30 218 C40.30519662 206.74875254 46.42218248 188.62465557 50 174 C50.29197266 172.81277344 50.29197266 172.81277344 50.58984375 171.6015625 C58.86247854 136.45638201 53.3530335 99.62017377 36 68 C33.56161714 64.1275682 30.85492046 60.57246731 28 57 C27.13169513 55.85860737 26.26595124 54.71526341 25.40234375 53.5703125 C19.74131565 46.12746249 13.77402184 39.4619082 7 33 C6.15695312 32.13890625 5.31390625 31.2778125 4.4453125 30.390625 C2.44006607 28.43022434 0.57019839 26.85758786 -1.75 25.3125 C-5 23 -5 23 -6 21 C-7.6755868 20.06381805 -9.39283483 19.20182017 -11.125 18.375 C-14.6427405 16.67219763 -18.12899436 14.95461816 -21.53515625 13.0390625 C-30.71440423 7.8919943 -39.97445157 4.17545395 -50 1 C-50.96421875 0.68160156 -51.9284375 0.36320312 -52.921875 0.03515625 C-91.30843541 -11.65529624 -132.16059384 -1.276195 -165.9921875 17.88671875 Z " fill="#7E8087" transform="translate(405,59)"/>
<path d="M0 0 C21.08644814 0.03532491 42.1759717 7.05255779 60.4375 17.25 C61.2109375 17.68054688 61.984375 18.11109375 62.78125 18.5546875 C64.73127059 19.71351121 66.58218045 20.94467636 68.4375 22.25 C69.35789062 22.89453125 70.27828125 23.5390625 71.2265625 24.203125 C81.66689302 31.76245292 95.72996149 42.613126 100.5 55.01171875 C100.809375 55.75035156 101.11875 56.48898438 101.4375 57.25 C102.4275 57.58 103.4175 57.91 104.4375 58.25 C123.79402195 84.72972202 129.80777237 121.43155516 125.3125 153.3125 C122.32197029 172.46281275 115.22057084 192.67951353 103.4375 208.25 C102.7775 208.25 102.1175 208.25 101.4375 208.25 C101.07591797 209.31927734 101.07591797 209.31927734 100.70703125 210.41015625 C99.25098857 213.66721171 97.42399772 215.96347749 95.125 218.6875 C94.31160156 219.65300781 93.49820313 220.61851562 92.66015625 221.61328125 C91.92667969 222.48339844 91.19320312 223.35351562 90.4375 224.25 C89.65375 225.28125 88.87 226.3125 88.0625 227.375 C83.98447403 231.84140939 79.33377489 235.70197471 74.4375 239.25 C73.7775 239.25 73.1175 239.25 72.4375 239.25 C72.4375 239.91 72.4375 240.57 72.4375 241.25 C70.4296875 242.59375 70.4296875 242.59375 67.4375 244.25 C66.18953707 244.9677649 64.94218263 245.68658841 63.6953125 246.40625 C62.31816352 247.1883021 60.94054898 247.96953488 59.5625 248.75 C58.88058594 249.14058594 58.19867188 249.53117188 57.49609375 249.93359375 C29.56768592 265.73309304 -6.52342882 270.46622472 -37.5625 262.25 C-39.45742188 261.79753906 -39.45742188 261.79753906 -41.390625 261.3359375 C-63.80517266 255.75498737 -82.74102123 245.04398879 -99.5625 229.25 C-99.5625 228.59 -99.5625 227.93 -99.5625 227.25 C-100.39394531 226.93482422 -100.39394531 226.93482422 -101.2421875 226.61328125 C-104.37843465 224.77060405 -106.42037563 222.21926833 -108.6875 219.4375 C-109.12964844 218.91607422 -109.57179687 218.39464844 -110.02734375 217.85742188 C-112.01320208 215.4545933 -113.52895052 213.33481214 -114.6796875 210.42578125 C-114.97101563 209.70777344 -115.26234375 208.98976563 -115.5625 208.25 C-116.5525 207.92 -117.5425 207.59 -118.5625 207.25 C-120.88975681 203.77541211 -122.6565641 199.96912553 -124.5625 196.25 C-125.06136719 195.36054688 -125.56023437 194.47109375 -126.07421875 193.5546875 C-135.30719956 176.54273861 -141.76087408 152.73943176 -139.5625 133.25 C-138.5625 132.25 -138.5625 132.25 -136.61303711 132.13647461 C-135.7803833 132.14171143 -134.94772949 132.14694824 -134.08984375 132.15234375 C-133.19072266 132.15556641 -132.29160156 132.15878906 -131.36523438 132.16210938 C-130.41970703 132.17048828 -129.47417969 132.17886719 -128.5 132.1875 C-127.55060547 132.19201172 -126.60121094 132.19652344 -125.62304688 132.20117188 C-123.26946935 132.2129989 -120.91601523 132.22947975 -118.5625 132.25 C-117.5415304 135.97621066 -117.45826918 139.37996552 -117.375 143.25 C-116.5997453 160.73811381 -109.60799722 179.08178426 -99.5625 193.25 C-98.985 194.219375 -98.4075 195.18875 -97.8125 196.1875 C-96.60239447 198.36891988 -96.60239447 198.36891988 -94.5625 200.25 C-94.5625 201.24 -94.5625 202.23 -94.5625 203.25 C-94.005625 203.476875 -93.44875 203.70375 -92.875 203.9375 C-89.90090412 205.62550036 -87.84241135 207.71676517 -85.5625 210.25 C-85.5625 210.91 -85.5625 211.57 -85.5625 212.25 C-84.758125 212.5903125 -84.758125 212.5903125 -83.9375 212.9375 C-80.73789839 214.70570089 -78.27212777 216.78670203 -75.5625 219.25 C-75.5625 219.91 -75.5625 220.57 -75.5625 221.25 C-75.00820312 221.51167969 -74.45390625 221.77335938 -73.8828125 222.04296875 C-71.28088523 223.39649657 -68.88817664 224.95134087 -66.4375 226.5625 C-55.24926232 233.71466255 -43.76602924 238.36500493 -30.875 241.4375 C-30.17431396 241.60451416 -29.47362793 241.77152832 -28.75170898 241.94360352 C-0.707475 248.35192371 28.21873709 241.48320698 52.34375 226.4375 C58.25757562 222.61442081 63.59382152 218.57731284 68.6953125 213.71875 C70.4375 212.25 70.4375 212.25 72.4375 212.25 C72.664375 211.693125 72.89125 211.13625 73.125 210.5625 C74.81300036 207.58840412 76.90426517 205.52991135 79.4375 203.25 C80.0975 203.25 80.7575 203.25 81.4375 203.25 C81.55867187 202.64929688 81.67984375 202.04859375 81.8046875 201.4296875 C82.4375 199.25 82.4375 199.25 84.5625 196.375 C91.55700131 186.89401413 95.96433717 175.41202675 99.4375 164.25 C99.83195313 163.04859375 100.22640625 161.8471875 100.6328125 160.609375 C107.96049547 136.10792207 104.20255489 109.07754379 93.4375 86.25 C92.9729541 85.23945557 92.9729541 85.23945557 92.49902344 84.20849609 C86.91367199 72.16415656 80.21884167 62.34038596 70.4375 53.25 C69.82261719 52.67636719 69.20773437 52.10273437 68.57421875 51.51171875 C60.93497368 44.60731089 52.55782859 39.00120943 43.4375 34.25 C42.78136719 33.90195313 42.12523437 33.55390625 41.44921875 33.1953125 C39.46399634 32.16888488 37.45968143 31.20138822 35.4375 30.25 C34.77105469 29.92128906 34.10460937 29.59257813 33.41796875 29.25390625 C21.84498577 24.04505051 8.04856022 22.0421498 -4.54296875 21.42578125 C-6.5625 21.25 -6.5625 21.25 -7.5625 20.25 C-7.66110131 18.84651265 -7.69328937 17.43819523 -7.6953125 16.03125 C-7.69660156 15.18175781 -7.69789063 14.33226563 -7.69921875 13.45703125 C-7.69535156 12.56371094 -7.69148437 11.67039062 -7.6875 10.75 C-7.69136719 9.85667969 -7.69523438 8.96335937 -7.69921875 8.04296875 C-7.69728516 6.76873047 -7.69728516 6.76873047 -7.6953125 5.46875 C-7.69418457 4.68435547 -7.69305664 3.89996094 -7.69189453 3.09179688 C-7.39196488 -1.1773904 -3.46131372 0.04331154 0 0 Z " fill="#7670B4" transform="translate(322.5625,64.75)"/>
<path d="M0 0 C1.05910583 -0.00637985 2.11821167 -0.0127597 3.20941162 -0.01933289 C4.94508392 -0.02100212 4.94508392 -0.02100212 6.71582031 -0.02270508 C7.90435608 -0.02603348 9.09289185 -0.02936188 10.31744385 -0.03279114 C12.84622815 -0.03786989 15.3750192 -0.04019917 17.90380859 -0.04003906 C21.73579379 -0.04220348 25.56748073 -0.06028752 29.39941406 -0.0793457 C31.8590485 -0.08228401 34.3186843 -0.08426588 36.77832031 -0.08520508 C38.47755646 -0.09598335 38.47755646 -0.09598335 40.21112061 -0.10697937 C56.51661543 -0.06124638 68.83712869 2.4015953 80.91113281 13.81323242 C88.2734442 21.86323223 89.44763105 31.9223244 89.30175781 42.47729492 C88.97358069 47.14636034 87.95725503 50.9054412 86.04394531 55.14526367 C85.67269531 56.15588867 85.30144531 57.16651367 84.91894531 58.20776367 C81.11722323 64.16379493 75.25545474 68.83642133 69.04394531 72.14526367 C65.23144531 72.83276367 65.23144531 72.83276367 62.04394531 73.14526367 C62.78644531 74.21776367 63.52894531 75.29026367 64.29394531 76.39526367 C64.71160156 76.99854492 65.12925781 77.60182617 65.55957031 78.22338867 C67.23130061 80.38783948 69.10868351 82.21360571 71.04394531 84.14526367 C72.50065128 85.87930922 73.93708601 87.63051853 75.35644531 89.39526367 C82.10874249 97.73607013 82.10874249 97.73607013 89.48144531 105.52026367 C91.04394531 107.14526367 91.04394531 107.14526367 91.04394531 109.14526367 C92.52894531 109.64026367 92.52894531 109.64026367 94.04394531 110.14526367 C94.04394531 111.46526367 94.04394531 112.78526367 94.04394531 114.14526367 C90.00266079 114.29103698 85.96205625 114.37949548 81.91894531 114.45776367 C80.77683594 114.4996582 79.63472656 114.54155273 78.45800781 114.5847168 C68.95366423 114.72286133 68.95366423 114.72286133 65.40722656 111.84448242 C61.70317327 107.61390254 61.70317327 107.61390254 60.35644531 105.64526367 C57.06267989 101.03575818 53.38163906 96.79499029 49.65063477 92.5378418 C46.04394531 88.36029594 46.04394531 88.36029594 46.04394531 86.14526367 C45.05394531 85.81526367 44.06394531 85.48526367 43.04394531 85.14526367 C41.02832031 82.95776367 41.02832031 82.95776367 38.79394531 80.14526367 C37.99988281 79.15268555 37.20582031 78.16010742 36.38769531 77.13745117 C33.77497384 73.80187676 31.1919227 70.44454179 28.61816406 67.07885742 C27.20430726 65.3422343 25.74989555 63.84731585 24.10644531 62.33276367 C22.04394531 60.14526367 22.04394531 60.14526367 22.04394531 56.14526367 C23.1922583 56.16882935 23.1922583 56.16882935 24.36376953 56.19287109 C27.88208423 56.25580246 31.40027993 56.29443796 34.91894531 56.33276367 C36.72492188 56.37046875 36.72492188 56.37046875 38.56738281 56.40893555 C45.95828111 56.46918744 52.12253881 55.75250282 59.04394531 53.14526367 C60.03394531 52.81526367 61.02394531 52.48526367 62.04394531 52.14526367 C63.20316659 50.41383514 63.20316659 50.41383514 64.04394531 48.14526367 C64.43582031 47.29963867 64.82769531 46.45401367 65.23144531 45.58276367 C66.51161517 40.16666043 66.58446407 34.3157919 64.10253906 29.20776367 C61.22082629 25.40352239 57.56173181 23.35599611 53.04394531 22.14526367 C48.59941826 21.69391309 44.17275303 21.68051431 39.70800781 21.66870117 C38.43291351 21.65312164 37.15781921 21.63754211 35.84408569 21.62149048 C32.4743065 21.5821236 29.10489874 21.55470957 25.73498535 21.53399658 C20.96636877 21.50229972 16.19795119 21.45098982 11.42953491 21.39761353 C8.89331824 21.37030819 6.35702903 21.34899146 3.82070923 21.33407593 C2.68217499 21.32381378 1.54364075 21.31355164 0.37060547 21.30297852 C-0.63642426 21.29648285 -1.64345398 21.28998718 -2.68099976 21.28329468 C-4.95605469 21.14526367 -4.95605469 21.14526367 -5.95605469 20.14526367 C-6.054656 18.74177632 -6.08684405 17.3334589 -6.08886719 15.92651367 C-6.09015625 15.07702148 -6.09144531 14.2275293 -6.09277344 13.35229492 C-6.08890625 12.45897461 -6.08503906 11.5656543 -6.08105469 10.64526367 C-6.08492188 9.75194336 -6.08878906 8.85862305 -6.09277344 7.93823242 C-6.09148437 7.08874023 -6.09019531 6.23924805 -6.08886719 5.36401367 C-6.08773926 4.57961914 -6.08661133 3.79522461 -6.08544922 2.98706055 C-5.81710072 -0.83260191 -3.24204883 0.01320814 0 0 Z " fill="#7F8188" transform="translate(286.9560546875,158.854736328125)"/>
<path d="M0 0 C7.26 0 14.52 0 22 0 C23.86687577 1.86687577 23.12006498 4.54281448 23.12442017 7.02632141 C23.12082489 7.89234482 23.11722961 8.75836823 23.11352539 9.65063477 C23.11367142 10.55786285 23.11381744 11.46509094 23.1139679 12.39981079 C23.11326841 15.41369985 23.10547434 18.42752793 23.09765625 21.44140625 C23.0957922 23.52505967 23.09436824 25.60871354 23.09336853 27.69236755 C23.08954234 33.18823446 23.0797112 38.68407513 23.06866455 44.17993164 C23.0584526 49.78336227 23.05387137 55.38679713 23.04882812 60.99023438 C23.03808902 71.99350114 23.02101139 82.99674839 23 94 C23.82725586 93.9685791 24.65451172 93.9371582 25.50683594 93.90478516 C29.25427921 93.78008085 33.00128655 93.70202836 36.75 93.625 C38.05195313 93.57472656 39.35390625 93.52445312 40.6953125 93.47265625 C44.22556699 93.41806469 47.51537975 93.42568045 51 94 C53.7590332 96.87255859 53.7590332 96.87255859 55 100 C57.04269944 102.34209324 59.1579774 104.59377944 61.29296875 106.8515625 C62.99408028 108.99254955 63.69962904 110.30255101 64 113 C63 114 63 114 60.48802185 114.12025452 C59.37105423 114.11803391 58.25408661 114.11581329 57.10327148 114.11352539 C55.18484436 114.11334412 55.18484436 114.11334412 53.22766113 114.11315918 C51.85880485 114.10812271 50.48994904 114.10295607 49.12109375 114.09765625 C47.88363403 114.09664917 46.64617432 114.09564209 45.37121582 114.09460449 C40.72663452 114.08935285 36.08206638 114.07539175 31.4375 114.0625 C21.063125 114.041875 10.68875 114.02125 0 114 C0 76.38 0 38.76 0 0 Z " fill="#7871B4" transform="translate(250,122)"/>
<path d="M0 0 C6.17797001 0.06448362 12.11246782 0.92816121 18.15991211 2.18945312 C17.82991211 3.17945312 17.49991211 4.16945313 17.15991211 5.18945312 C16.60045898 5.04507813 16.04100586 4.90070313 15.46459961 4.75195312 C7.99511308 3.02268293 0.79994458 2.99129666 -6.84008789 3.18945312 C-6.88907227 4.16527344 -6.93805664 5.14109375 -6.98852539 6.14648438 C-7.06329102 7.41878906 -7.13805664 8.69109375 -7.21508789 10.00195312 C-7.28469727 11.26652344 -7.35430664 12.53109375 -7.42602539 13.83398438 C-7.84008789 17.18945312 -7.84008789 17.18945312 -9.84008789 20.18945312 C-9.86897303 17.04363889 -9.88684712 13.89785844 -9.90258789 10.75195312 C-9.9109668 9.85412109 -9.9193457 8.95628906 -9.92797852 8.03125 C-9.93120117 7.17724609 -9.93442383 6.32324219 -9.93774414 5.44335938 C-9.94559937 4.25722046 -9.94559937 4.25722046 -9.95361328 3.04711914 C-9.66034404 -1.7517747 -3.65948461 0.00352509 0 0 Z " fill="#847EAC" transform="translate(324.840087890625,64.810546875)"/>
<path d="M0 0 C0.33 0.99 0.66 1.98 1 3 C0.34 3.66 -0.32 4.32 -1 5 C-1.99 5 -2.98 5 -4 5 C-4.061875 5.556875 -4.12375 6.11375 -4.1875 6.6875 C-5.35672428 10.01529218 -7.35322804 11.73133832 -10 14 C-10.99 14 -11.98 14 -13 14 C-13 14.66 -13 15.32 -13 16 C-14.32 16.33 -15.64 16.66 -17 17 C-16.09373216 15.7010161 -15.17450463 14.41106833 -14.25 13.125 C-13.73953125 12.40570313 -13.2290625 11.68640625 -12.703125 10.9453125 C-10.91252789 8.90008919 -9.43058371 8.13086105 -7 7 C-6.690625 6.360625 -6.38125 5.72125 -6.0625 5.0625 C-4.6293766 2.28055457 -2.71816847 1.43061498 0 0 Z " fill="#7F78AD" transform="translate(402,270)"/>
<path d="M0 0 C0.99 0 1.98 0 3 0 C3 6.6 3 13.2 3 20 C2.34 20 1.68 20 1 20 C0.67 13.4 0.34 6.8 0 0 Z " fill="#8A87B3" transform="translate(446,188)"/>
<path d="M0 0 C2.475 0.495 2.475 0.495 5 1 C5 1.99 5 2.98 5 4 C5.61875 4.0825 6.2375 4.165 6.875 4.25 C9 5 9 5 10.125 6.9375 C10.41375 7.618125 10.7025 8.29875 11 9 C11.66 9.66 12.32 10.32 13 11 C13 11.66 13 12.32 13 13 C11.68 12.34 10.36 11.68 9 11 C9 10.34 9 9.68 9 9 C8.443125 8.814375 7.88625 8.62875 7.3125 8.4375 C3.93245808 6.33639286 2.14859619 3.29334006 0 0 Z " fill="#958FB9" transform="translate(214,283)"/>
<path d="M0 0 C2.375 -0.1875 2.375 -0.1875 5 0 C7.49118953 3.7367843 7.2065226 5.74451819 7.125 10.1875 C7.10695312 11.45980469 7.08890625 12.73210937 7.0703125 14.04296875 C7.03550781 15.50669922 7.03550781 15.50669922 7 17 C6.34 17 5.68 17 5 17 C3.85922343 13.57767028 3.90184883 10.91326783 3.9375 7.3125 C3.94652344 6.13300781 3.95554688 4.95351562 3.96484375 3.73828125 C3.97644531 2.83464844 3.98804688 1.93101562 4 1 C2.68 0.67 1.36 0.34 0 0 Z " fill="#8D88B5" transform="translate(198,198)"/>
<path d="M0 0 C0 0.66 0 1.32 0 2 C-1.98 2.33 -3.96 2.66 -6 3 C-6 3.66 -6 4.32 -6 5 C-7.72492978 5.53469802 -9.455198 6.05219175 -11.1875 6.5625 C-12.63189453 6.99755859 -12.63189453 6.99755859 -14.10546875 7.44140625 C-17.12752588 8.02461026 -19.05929955 7.81178385 -22 7 C-18.92519537 5.32151842 -15.95191331 4.36498204 -12.5625 3.5 C-9.7049098 2.76871127 -7.01636053 2.00657238 -4.27734375 0.90625 C-2 0 -2 0 0 0 Z " fill="#A09CC5" transform="translate(358,301)"/>
<path d="M0 0 C0.66 0.33 1.32 0.66 2 1 C-1.69775785 8.32735426 -1.69775785 8.32735426 -4.890625 9.9765625 C-6.8125 10.5 -6.8125 10.5 -10 11 C-6.79239749 7.19364503 -3.59253891 3.45436433 0 0 Z " fill="#929197" transform="translate(206,74)"/>
<path d="M0 0 C0.66 0 1.32 0 2 0 C3.19725883 2.28703308 4.38297018 4.57884862 5.5625 6.875 C5.90474609 7.52597656 6.24699219 8.17695313 6.59960938 8.84765625 C7.46082891 10.53529857 8.23686703 12.26579593 9 14 C8.67 14.66 8.34 15.32 8 16 C7.01 16 6.02 16 5 16 C5.33 14.68 5.66 13.36 6 12 C5.34 12 4.68 12 4 12 C2.18757677 7.9811485 0.66498383 4.38889325 0 0 Z " fill="#9A9A9F" transform="translate(182,251)"/>
<path d="M0 0 C1.11375 0.1546875 1.11375 0.1546875 2.25 0.3125 C-1.75 4.3125 -5.75 8.3125 -9.75 12.3125 C-10.08 11.3225 -10.41 10.3325 -10.75 9.3125 C-10.09 9.3125 -9.43 9.3125 -8.75 9.3125 C-8.5025 8.755625 -8.255 8.19875 -8 7.625 C-4.13219895 0.46956806 -4.13219895 0.46956806 0 0 Z " fill="#8F8E95" transform="translate(220.75,88.6875)"/>
<path d="M0 0 C0.33 0.66 0.66 1.32 1 2 C2.65 1.67 4.3 1.34 6 1 C6 1.66 6 2.32 6 3 C5.34 3 4.68 3 4 3 C4.66 4.65 5.32 6.3 6 8 C5.34 8 4.68 8 4 8 C3.34 8.66 2.68 9.32 2 10 C1.01 7.03 0.02 4.06 -1 1 C-0.67 0.67 -0.34 0.34 0 0 Z " fill="#8882BA" transform="translate(416,146)"/>
<path d="M0 0 C3.63 0.33 7.26 0.66 11 1 C11 1.99 11 2.98 11 4 C5.04296875 4.390625 5.04296875 4.390625 3 4 C2.01 2.68 1.02 1.36 0 0 Z " fill="#827CB0" transform="translate(277,304)"/>
<path d="M0 0 C-5.49687876 2.96656949 -11.74410231 4.4036063 -18 4 C-17.67 3.34 -17.34 2.68 -17 2 C-14.453125 1.3671875 -14.453125 1.3671875 -11.25 0.875 C-10.20328125 0.70742188 -9.1565625 0.53984375 -8.078125 0.3671875 C-5.3438423 0.04101672 -2.74892942 -0.07126854 0 0 Z " fill="#9792BB" transform="translate(351,325)"/>
<path d="M0 0 C1.65 0.33 3.3 0.66 5 1 C4.67 1.66 4.34 2.32 4 3 C4.66 3.33 5.32 3.66 6 4 C6 4.66 6 5.32 6 6 C6.99 6.33 7.98 6.66 9 7 C4.78087253 6.5205537 2.20336822 5.83374881 -1 3 C-0.67 2.01 -0.34 1.02 0 0 Z " fill="#8E8F95" transform="translate(254,346)"/>
<path d="M0 0 C2.64 0.33 5.28 0.66 8 1 C2.85714286 5.42857143 2.85714286 5.42857143 -1 6 C-0.67 4.02 -0.34 2.04 0 0 Z " fill="#8E8E93" transform="translate(391,338)"/>
<path d="M0 0 C2.64 0.33 5.28 0.66 8 1 C7.67 1.99 7.34 2.98 7 4 C6.34 4 5.68 4 5 4 C5 4.66 5 5.32 5 6 C5.66 6 6.32 6 7 6 C6.67 6.66 6.34 7.32 6 8 C1.125 3.375 1.125 3.375 0 0 Z " fill="#8F8C93" transform="translate(308,216)"/>
<path d="M0 0 C0.598125 0.350625 1.19625 0.70125 1.8125 1.0625 C1.8125 1.7225 1.8125 2.3825 1.8125 3.0625 C2.8025 2.7325 3.7925 2.4025 4.8125 2.0625 C5.1425 3.3825 5.4725 4.7025 5.8125 6.0625 C1.30447399 4.80444623 -1.6787812 3.15842835 -5.1875 0.0625 C-2.1875 -0.9375 -2.1875 -0.9375 0 0 Z " fill="#939197" transform="translate(240.1875,339.9375)"/>
<path d="M0 0 C0.98120464 3.05263664 0.98120464 4.94736336 0 8 C-3.16115776 6.63016497 -3.9927092 6.0109362 -6 3 C-5.195625 2.690625 -4.39125 2.38125 -3.5625 2.0625 C-1.10919595 1.23664655 -1.10919595 1.23664655 0 0 Z " fill="#8B85B8" transform="translate(239,298)"/>
<path d="M0 0 C3.96 1.98 3.96 1.98 8 4 C8 4.99 8 5.98 8 7 C7.01 7.495 7.01 7.495 6 8 C6 6.68 6 5.36 6 4 C4.02 4 2.04 4 0 4 C-0.33 3.34 -0.66 2.68 -1 2 C-0.67 1.34 -0.34 0.68 0 0 Z " fill="#9A95BF" transform="translate(382,82)"/>
<path d="M0 0 C4.455 0.99 4.455 0.99 9 2 C5.91111478 4.05925681 5.29064073 4.2390374 1.8125 4.125 C-0.0746875 4.063125 -0.0746875 4.063125 -2 4 C-2 3.34 -2 2.68 -2 2 C-1.34 2 -0.68 2 0 2 C0 1.34 0 0.68 0 0 Z " fill="#8981B6" transform="translate(358,72)"/>
<path d="M0 0 C6.75 0.875 6.75 0.875 9 2 C8.67 2.66 8.34 3.32 8 4 C5.69 4 3.38 4 1 4 C0.67 2.68 0.34 1.36 0 0 Z " fill="#97979C" transform="translate(367,42)"/>
<path d="M0 0 C6.43311296 -0.09507063 12.65758005 -0.15316726 19 1 C19 1.33 19 1.66 19 2 C17.02 2 15.04 2 13 2 C13 2.66 13 3.32 13 4 C12.01 3.67 11.02 3.34 10 3 C10 2.67 10 2.34 10 2 C6.7 1.67 3.4 1.34 0 1 C0 0.67 0 0.34 0 0 Z " fill="#BFBEC2" transform="translate(320,33)"/>
<path d="M0 0 C0.33 0 0.66 0 1 0 C0.88529863 1.75070517 0.75780972 3.50057536 0.625 5.25 C0.55539062 6.22453125 0.48578125 7.1990625 0.4140625 8.203125 C0 11 0 11 -2 15 C-2.33 12.03 -2.66 9.06 -3 6 C-2.34 6 -1.68 6 -1 6 C-0.67 4.02 -0.34 2.04 0 0 Z " fill="#968FBA" transform="translate(446,217)"/>
<path d="M0 0 C0.33 0 0.66 0 1 0 C1.36552803 1.41377782 1.71695495 2.83120576 2.0625 4.25 C2.25972656 5.03890625 2.45695312 5.8278125 2.66015625 6.640625 C3.01497267 9.10394822 2.76877544 10.65604132 2 13 C1.67 12.01 1.34 11.02 1 10 C0.34 9.67 -0.32 9.34 -1 9 C-0.67 6.03 -0.34 3.06 0 0 Z " fill="#98989C" transform="translate(475,160)"/>
<path d="M0 0 C2.12046792 3.53411321 2.53199289 6.94393835 3 11 C2.34 11 1.68 11 1 11 C-0.62950412 6.87831311 -1.26264601 4.29299643 0 0 Z " fill="#938CBD" transform="translate(443,160)"/>
<path d="M0 0 C3.3 0.33 6.6 0.66 10 1 C9.67 1.99 9.34 2.98 9 4 C5.7 3.34 2.4 2.68 -1 2 C-0.67 1.34 -0.34 0.68 0 0 Z " fill="#948EBF" transform="translate(333,66)"/>
<path d="M0 0 C0.99 0 1.98 0 3 0 C2.67 1.32 2.34 2.64 2 4 C1.34 4 0.68 4 0 4 C-0.12375 4.804375 -0.2475 5.60875 -0.375 6.4375 C-0.58125 7.283125 -0.7875 8.12875 -1 9 C-1.99 9.495 -1.99 9.495 -3 10 C-2.39009109 6.44219804 -1.4216319 3.3171411 0 0 Z " fill="#9C9BA2" transform="translate(456,278)"/>
<path d="M0 0 C0.33 0.99 0.66 1.98 1 3 C1.66 3.33 2.32 3.66 3 4 C3 6.31 3 8.62 3 11 C2.34 11 1.68 11 1 11 C-0.28317892 7.15046324 -0.06643637 4.05261865 0 0 Z " fill="#8A8A90" transform="translate(155,227)"/>
<path d="M0 0 C0.66 0 1.32 0 2 0 C2 0.99 2 1.98 2 3 C1.34 3 0.68 3 0 3 C-0.28875 3.61875 -0.5775 4.2375 -0.875 4.875 C-2 7 -2 7 -4 9 C-4 7.35 -4 5.7 -4 4 C-3.34 4 -2.68 4 -2 4 C-1.34 2.68 -0.68 1.36 0 0 Z " fill="#95959B" transform="translate(207,101)"/>
<path d="M0 0 C5.28 0.33 10.56 0.66 16 1 C16 1.33 16 1.66 16 2 C10.06 2.33 4.12 2.66 -2 3 C-1.34 2.67 -0.68 2.34 0 2 C0 1.34 0 0.68 0 0 Z " fill="#73727B" transform="translate(304,52)"/>
<path d="M0 0 C1.98 0.66 3.96 1.32 6 2 C5.01 2.495 5.01 2.495 4 3 C2.86649466 5.01669827 2.86649466 5.01669827 2 7 C0 5 0 5 -0.125 2.375 C-0.08375 1.59125 -0.0425 0.8075 0 0 Z " fill="#919297" transform="translate(260,329)"/>
<path d="M0 0 C-1.3697164 3.99500618 -3.25722422 6.80009492 -6 10 C-5.67558396 8.33157466 -5.34060811 6.66519519 -5 5 C-4.855625 4.2575 -4.71125 3.515 -4.5625 2.75 C-4.376875 2.1725 -4.19125 1.595 -4 1 C-2 0 -2 0 0 0 Z " fill="#948DB6" transform="translate(432,262)"/>
<path d="M0 0 C0.99 0.33 1.98 0.66 3 1 C4.1875 3.5625 4.1875 3.5625 5 6 C4.01 6.33 3.02 6.66 2 7 C0 5 0 5 -0.125 2.375 C-0.08375 1.59125 -0.0425 0.8075 0 0 Z " fill="#908BB6" transform="translate(218,254)"/>
<path d="M0 0 C2.64465038 3.1254959 3.84414715 6.08788267 5 10 C2 9 2 9 0 6 C-0.125 2.8125 -0.125 2.8125 0 0 Z " fill="#9591BC" transform="translate(432,133)"/>
<path d="M0 0 C0.33 0 0.66 0 1 0 C1.125 2.375 1.125 2.375 1 5 C0.34 5.66 -0.32 6.32 -1 7 C-1.69748583 8.31747324 -2.36959957 9.64914193 -3 11 C-3.66 11 -4.32 11 -5 11 C-3.77782954 6.95743617 -2.37245704 3.50711041 0 0 Z " fill="#9F9FA2" transform="translate(172,117)"/>
<path d="M0 0 C2.31 0.33 4.62 0.66 7 1 C7.33 2.65 7.66 4.3 8 6 C4.942048 4.26440562 2.36620011 2.61527381 0 0 Z " fill="#8B86B1" transform="translate(382,108)"/>
<path d="M0 0 C0.33 0.99 0.66 1.98 1 3 C-1.5654594 5.5654594 -3.47686668 5.54046087 -7 6 C-4.9859524 2.9789286 -3.36720387 1.39332574 0 0 Z " fill="#8C87B3" transform="translate(402,270)"/>
<path d="M0 0 C1.32 1.65 2.64 3.3 4 5 C3.34 6.32 2.68 7.64 2 9 C1.34 8.67 0.68 8.34 0 8 C0 5.36 0 2.72 0 0 Z " fill="#89898F" transform="translate(450,103)"/>
<path d="M0 0 C0 0.99 0 1.98 0 3 C-0.66 3.66 -1.32 4.32 -2 5 C-4.625 4.625 -4.625 4.625 -7 4 C-4.61426621 2.10786631 -2.92824652 0.97608217 0 0 Z " fill="#9999A1" transform="translate(393,318)"/>
<path d="M0 0 C1.9375 0.625 1.9375 0.625 4 2 C4.75 5.125 4.75 5.125 5 8 C2.5 5.6875 2.5 5.6875 0 3 C0 2.01 0 1.02 0 0 Z " fill="#919197" transform="translate(181,289)"/>
<path d="M0 0 C3.93846154 4.30769231 3.93846154 4.30769231 4.25 7.8125 C4.1675 8.534375 4.085 9.25625 4 10 C-0.60921053 4.64736842 -0.60921053 4.64736842 -1 1 C-0.67 0.67 -0.34 0.34 0 0 Z " fill="#9C94BD" transform="translate(196,253)"/>
<path d="M0 0 C0.66 0 1.32 0 2 0 C2.33 1.65 2.66 3.3 3 5 C3.66 5 4.32 5 5 5 C4.67 6.32 4.34 7.64 4 9 C4 8.01 4 7.02 4 6 C2.68 5.67 1.36 5.34 0 5 C0 3.35 0 1.7 0 0 Z " fill="#7168AD" transform="translate(441,166)"/>
<path d="M0 0 C2.97 0.33 5.94 0.66 9 1 C8.34 2.32 7.68 3.64 7 5 C3.535 3.02 3.535 3.02 0 1 C0 0.67 0 0.34 0 0 Z " fill="#928ABB" transform="translate(366,98)"/>
<path d="M0 0 C-2.62198774 2.15377564 -4.64404172 3.40072174 -8 4 C-7.625 2.0625 -7.625 2.0625 -7 0 C-4.3333581 -1.33332095 -2.83319697 -0.67102033 0 0 Z " fill="#9D9DA1" transform="translate(390,344)"/>
<path d="M0 0 C-4.625 4 -4.625 4 -8 4 C-8 3.01 -8 2.02 -8 1 C-5.07175348 0.02391783 -3.04386724 -0.08226668 0 0 Z " fill="#9290B9" transform="translate(376,316)"/>
<path d="M0 0 C0 1.32 0 2.64 0 4 C-1.98 3.34 -3.96 2.68 -6 2 C-6 1.34 -6 0.68 -6 0 C-3 -1 -3 -1 0 0 Z " fill="#8B84B4" transform="translate(263,316)"/>
<path d="M0 0 C2.9375 0.75 2.9375 0.75 6 2 C6.875 4.125 6.875 4.125 7 6 C5.1875 5.8125 5.1875 5.8125 3 5 C1.25 2.4375 1.25 2.4375 0 0 Z " fill="#8D8F94" transform="translate(341,255)"/>
<path d="M0 0 C2.79872437 2.52788007 4.45773019 4.20411134 5 8 C3.68 7.67 2.36 7.34 1 7 C0.67 4.69 0.34 2.38 0 0 Z " fill="#9491B6" transform="translate(309,227)"/>
<path d="M0 0 C0.33 0 0.66 0 1 0 C1.28571429 8.57142857 1.28571429 8.57142857 -1 12 C-2.36884358 7.48281619 -1.47075246 4.41225737 0 0 Z " fill="#919195" transform="translate(476,223)"/>
<path d="M0 0 C0.33 0.66 0.66 1.32 1 2 C0.22265625 3.9453125 0.22265625 3.9453125 -0.9375 6.125 C-1.31777344 6.84945312 -1.69804687 7.57390625 -2.08984375 8.3203125 C-2.39019531 8.87460938 -2.69054687 9.42890625 -3 10 C-3.33 10 -3.66 10 -4 10 C-4 7.69 -4 5.38 -4 3 C-3.01 3 -2.02 3 -1 3 C-0.67 2.01 -0.34 1.02 0 0 Z " fill="#A1A2A4" transform="translate(189,130)"/>
<path d="M0 0 C0.66 0 1.32 0 2 0 C3.38938077 1.96147874 4.7260411 3.96166576 6 6 C5.67 6.66 5.34 7.32 5 8 C4.01 7.34 3.02 6.68 2 6 C2 5.01 2 4.02 2 3 C1.34 3 0.68 3 0 3 C0 2.01 0 1.02 0 0 Z " fill="#938EB8" transform="translate(426,125)"/>
<path d="M0 0 C1.98 0.99 3.96 1.98 6 3 C5.34 4.32 4.68 5.64 4 7 C1.49962266 4.82575883 0.56371414 3.26954202 0 0 Z " fill="#8881B7" transform="translate(391,88)"/>
<path d="M0 0 C-1.26607607 0.53229326 -2.53810412 1.05044544 -3.8125 1.5625 C-4.52019531 1.85253906 -5.22789062 2.14257812 -5.95703125 2.44140625 C-8 3 -8 3 -11 2 C-7.62346206 -1.37653794 -4.38842265 -1.24183024 0 0 Z " fill="#A7A3C3" transform="translate(364,322)"/>
<path d="M0 0 C0.66 0.33 1.32 0.66 2 1 C1.34 2.65 0.68 4.3 0 6 C-1.32 5.34 -2.64 4.68 -4 4 C-2.68 3.34 -1.36 2.68 0 2 C0 1.34 0 0.68 0 0 Z " fill="#9B9C9F" transform="translate(409,305)"/>
<path d="M0 0 C2.475 0.495 2.475 0.495 5 1 C4.34 3.31 3.68 5.62 3 8 C2.67 8 2.34 8 2 8 C1.34 5.36 0.68 2.72 0 0 Z " fill="#8F8E96" transform="translate(368,211)"/>
<path d="M0 0 C0.66 0 1.32 0 2 0 C4.125 4.625 4.125 4.625 3 8 C3 7.34 3 6.68 3 6 C2.34 6 1.68 6 1 6 C0.67 4.02 0.34 2.04 0 0 Z " fill="#A6A4A8" transform="translate(465,131)"/>
<path d="M0 0 C-0.33 0.99 -0.66 1.98 -1 3 C-4.5625 4.1875 -4.5625 4.1875 -8 5 C-5.72541886 1.64228499 -4.30291326 0 0 0 Z " fill="#8B8B91" transform="translate(204,80)"/>
<path d="M0 0 C2.31 0.33 4.62 0.66 7 1 C4.03312999 2.64826111 1.34373475 3.44271087 -2 4 C-1.34 3.67 -0.68 3.34 0 3 C0 2.01 0 1.02 0 0 Z " fill="#A6A5AA" transform="translate(267,60)"/>
<path d="M0 0 C2 1 2 1 2 1 Z " fill="#FFFFFF" transform="translate(258,30)"/>
<path d="" fill="#FFFFFF" transform="translate(0,0)"/>
<path d="" fill="#FFFFFF" transform="translate(0,0)"/>
<path d="" fill="#FFFFFF" transform="translate(0,0)"/>
<path d="" fill="#FFFFFF" transform="translate(0,0)"/>
<path d="" fill="#FFFFFF" transform="translate(0,0)"/>
<path d="" fill="#FFFFFF" transform="translate(0,0)"/>
<path d="" fill="#FFFFFF" transform="translate(0,0)"/>
<path d="" fill="#FFFFFF" transform="translate(0,0)"/>
<path d="" fill="#FFFFFF" transform="translate(0,0)"/>
<path d="" fill="#FFFFFF" transform="translate(0,0)"/>
<path d="" fill="#FFFFFF" transform="translate(0,0)"/>
<path d="" fill="#FFFFFF" transform="translate(0,0)"/>
<path d="" fill="#FFFFFF" transform="translate(0,0)"/>
<path d="" fill="#FFFFFF" transform="translate(0,0)"/>
<path d="" fill="#FFFFFF" transform="translate(0,0)"/>
<path d="" fill="#FFFFFF" transform="translate(0,0)"/>
<path d="" fill="#FFFFFF" transform="translate(0,0)"/>
<path d="" fill="#FFFFFF" transform="translate(0,0)"/>
<path d="" fill="#FFFFFF" transform="translate(0,0)"/>
<path d="" fill="#FFFFFF" transform="translate(0,0)"/>
<path d="" fill="#FFFFFF" transform="translate(0,0)"/>
<path d="" fill="#FFFFFF" transform="translate(0,0)"/>
<path d="" fill="#FFFFFF" transform="translate(0,0)"/>
<path d="" fill="#FFFFFF" transform="translate(0,0)"/>
<path d="" fill="#FFFFFF" transform="translate(0,0)"/>
<path d="" fill="#FFFFFF" transform="translate(0,0)"/>
<path d="" fill="#FFFFFF" transform="translate(0,0)"/>
<path d="" fill="#FFFFFF" transform="translate(0,0)"/>
<path d="" fill="#FFFFFF" transform="translate(0,0)"/>
<path d="" fill="#FFFFFF" transform="translate(0,0)"/>
<path d="" fill="#FFFFFF" transform="translate(0,0)"/>
<path d="" fill="#FFFFFF" transform="translate(0,0)"/>
<path d="" fill="#FFFFFF" transform="translate(0,0)"/>
<path d="" fill="#FFFFFF" transform="translate(0,0)"/>
<path d="" fill="#FFFFFF" transform="translate(0,0)"/>
<path d="" fill="#FFFFFF" transform="translate(0,0)"/>
<path d="" fill="#FFFFFF" transform="translate(0,0)"/>
<path d="" fill="#FFFFFF" transform="translate(0,0)"/>
<path d="" fill="#FFFFFF" transform="translate(0,0)"/>
<path d="" fill="#FFFFFF" transform="translate(0,0)"/>
<path d="" fill="#FFFFFF" transform="translate(0,0)"/>
<path d="" fill="#FFFFFF" transform="translate(0,0)"/>
<path d="" fill="#FFFFFF" transform="translate(0,0)"/>
<path d="" fill="#FFFFFF" transform="translate(0,0)"/>
<path d="" fill="#FFFFFF" transform="translate(0,0)"/>
<path d="" fill="#FFFFFF" transform="translate(0,0)"/>
<path d="" fill="#FFFFFF" transform="translate(0,0)"/>
<path d="" fill="#FFFFFF" transform="translate(0,0)"/>
<path d="" fill="#FFFFFF" transform="translate(0,0)"/>
<path d="" fill="#FFFFFF" transform="translate(0,0)"/>
<path d="" fill="#FFFFFF" transform="translate(0,0)"/>
<path d="" fill="#FFFFFF" transform="translate(0,0)"/>
<path d="" fill="#FFFFFF" transform="translate(0,0)"/>
<path d="" fill="#FFFFFF" transform="translate(0,0)"/>
<path d="" fill="#FFFFFF" transform="translate(0,0)"/>
<path d="" fill="#FFFFFF" transform="translate(0,0)"/>
<path d="" fill="#FFFFFF" transform="translate(0,0)"/>
<path d="" fill="#FFFFFF" transform="translate(0,0)"/>
<path d="" fill="#FFFFFF" transform="translate(0,0)"/>
<path d="" fill="#FFFFFF" transform="translate(0,0)"/>
<path d="" fill="#FFFFFF" transform="translate(0,0)"/>
<path d="" fill="#FFFFFF" transform="translate(0,0)"/>
<path d="" fill="#FFFFFF" transform="translate(0,0)"/>
<path d="" fill="#FFFFFF" transform="translate(0,0)"/>
<path d="" fill="#FFFFFF" transform="translate(0,0)"/>
<path d="" fill="#FFFFFF" transform="translate(0,0)"/>
</svg>
